<?xml version="1.0" standalone="no"?>
<!DOCTYPE svg PUBLIC "-//W3C//DTD SVG 20010904//EN"
 "http://www.w3.org/TR/2001/REC-SVG-20010904/DTD/svg10.dtd">
<svg version="1.0" xmlns="http://www.w3.org/2000/svg"
 width="290.000000pt" height="249.000000pt" viewBox="0 0 290.000000 249.000000"
 preserveAspectRatio="xMidYMid meet">
<metadata>
Created by potrace 1.10, written by Peter Selinger 2001-2011
</metadata>
<g transform="translate(0.000000,249.000000) scale(0.050000,-0.050000)"
fill="#000000" stroke="none">
<path d="M660 4296 c0 -67 1 -68 125 -94 70 -14 145 -44 170 -67 l45 -42 0
-1028 c0 -1198 7 -1165 -259 -1165 -79 0 -81 -2 -81 -70 l0 -70 550 0 550 0 0
70 c0 70 0 70 -91 70 -253 0 -269 35 -269 589 l0 451 129 0 129 0 198 -265
c109 -146 259 -357 333 -469 l136 -204 -9 -366 c-11 -498 -47 -562 -332 -608
-79 -12 -84 -17 -84 -81 l0 -67 530 0 530 0 0 70 c0 59 -7 70 -45 70 -53 0
-214 47 -276 80 -80 43 -125 189 -135 435 l-9 225 342 0 343 0 0 70 c0 64 -5
70 -57 70 -163 0 -316 106 -491 342 l-133 179 5 264 6 264 399 -540 c220 -296
569 -766 776 -1044 l376 -505 78 0 79 0 6 1105 c7 1323 -3 1263 226 1334 74
22 147 41 162 41 19 0 28 24 28 70 l0 71 -525 -6 -525 -5 -6 -61 c-6 -61 -5
-62 144 -97 311 -73 314 -85 307 -1055 l-5 -731 -700 948 c-385 522 -699 964
-697 982 1 19 13 87 26 151 55 274 -62 517 -310 641 -177 88 -247 96 -984 106
l-705 10 0 -68z m1222 -116 c240 -67 374 -313 329 -607 l-13 -91 -174 -6 -174
-6 -6 -61 c-6 -58 -1 -62 95 -87 162 -41 152 -75 -49 -173 -85 -41 -129 -49
-295 -49 l-195 0 0 550 0 550 205 0 c113 0 238 -9 277 -20z m429 -1208 c6 -45
9 -130 5 -188 l-6 -106 -134 179 -133 179 103 39 c123 45 145 32 165 -103z"/>
</g>
</svg>
